<svg width="133" height="133" viewBox="0 0 133 133" fill="none" xmlns="http://www.w3.org/2000/svg">
<g clip-path="url(#clip0)">
<path d="M128.024 32.6691L66.4645 94.2339L4.90543 32.6691C3.757 31.5597 1.92661 31.5917 0.817209 32.7402C-0.264814 33.8607 -0.264814 35.6369 0.817209 36.7571L64.4232 100.363C65.5522 101.492 67.3823 101.492 68.5115 100.363L132.117 36.7571C133.266 35.6477 133.298 33.8176 132.188 32.6689C131.079 31.5204 129.249 31.4887 128.1 32.5979C128.076 32.6212 128.053 32.6448 128.029 32.6689L128.024 32.6691Z" fill="#516588"/>
<path d="M66.4645 101.213C65.6972 101.215 64.9607 100.911 64.4175 100.369L0.81152 36.7631C-0.297879 35.6146 -0.265896 33.7842 0.882535 32.6748C2.00305 31.5928 3.77923 31.5928 4.89947 32.6748L66.4642 94.2339L128.023 32.6692C129.133 31.5207 130.963 31.489 132.112 32.5981C133.26 33.7075 133.292 35.5377 132.183 36.6864C132.159 36.7105 132.136 36.7341 132.112 36.7574L68.5058 100.363C67.9648 100.906 67.2305 101.212 66.4645 101.213Z" fill="#516588"/>
</g>
<defs>
<clipPath id="clip0">
<rect width="133" height="133" fill="white"/>
</clipPath>
</defs>
</svg>
