<svg width="25" height="25" viewBox="0 0 25 25" fill="none" xmlns="http://www.w3.org/2000/svg">
<path d="M12.5 22.9167C18.253 22.9167 22.9167 18.253 22.9167 12.5C22.9167 6.74705 18.253 2.08334 12.5 2.08334C6.74703 2.08334 2.08333 6.74705 2.08333 12.5C2.08333 18.253 6.74703 22.9167 12.5 22.9167Z" fill="#A3D9A5"/>
<path d="M10.4167 15.1979L16.9792 8.63541C17.1796 8.46607 17.4366 8.37863 17.6988 8.39058C17.9609 8.40252 18.2089 8.51297 18.3931 8.69984C18.5774 8.8867 18.6843 9.13622 18.6925 9.39851C18.7007 9.6608 18.6097 9.91653 18.4375 10.1146L11.1458 17.4062C10.9511 17.5971 10.6893 17.704 10.4167 17.704C10.144 17.704 9.88221 17.5971 9.68749 17.4062L6.56249 14.2812C6.39033 14.0832 6.29926 13.8275 6.30748 13.5652C6.31571 13.3029 6.42263 13.0534 6.60686 12.8665C6.7911 12.6796 7.03907 12.5692 7.30122 12.5572C7.56336 12.5453 7.82036 12.6327 8.02083 12.8021L10.4167 15.1979Z" fill="#3E4C59"/>
<rect x="1" y="1" width="23" height="23" rx="11.5" stroke="#3E4C59" stroke-width="2"/>
</svg>
